<svg width="1007" height="336" viewBox="0 0 1007 336" fill="none" xmlns="http://www.w3.org/2000/svg">
<circle cx="168" cy="168" r="154" fill="#535353" stroke="black" stroke-width="28"/>
<path d="M122.189 129.628L101.545 150.297L133.381 182.228L111.673 224.661L154.024 202.898L185.913 234.771L206.556 214.101L122.189 129.628Z" fill="white"/>
<path d="M174.724 182.229L154.025 202.898L185.913 234.771L206.557 214.102L174.724 182.229Z" fill="white"/>
<path d="M174.724 182.229L154.025 202.898L161.993 210.821L174.724 182.229Z" fill="white"/>
<path d="M202.935 154.091L224.671 111.686L182.292 133.421L150.401 101.546L129.758 122.215L214.125 206.689L234.769 186.019L202.935 154.091Z" fill="#D44747"/>
<path d="M161.593 154.092L182.292 133.422L150.401 101.547L129.758 122.216L161.593 154.092Z" fill="#D44747"/>
<path d="M161.593 154.091L182.292 133.422L174.322 125.496L161.593 154.091Z" fill="#D44747"/>
<path d="M183.073 71H174.865L161.137 50.216V71H152.929V37.304H161.137L174.865 58.184V37.304H183.073V71Z" fill="#DCDCDC"/>
<path d="M168.402 299.336C165.938 299.336 163.73 298.936 161.778 298.136C159.826 297.336 158.258 296.152 157.074 294.584C155.922 293.016 155.314 291.128 155.25 288.92H163.986C164.114 290.168 164.546 291.128 165.282 291.8C166.018 292.44 166.978 292.76 168.162 292.76C169.378 292.76 170.338 292.488 171.042 291.944C171.746 291.368 172.098 290.584 172.098 289.592C172.098 288.76 171.81 288.072 171.234 287.528C170.69 286.984 170.002 286.536 169.17 286.184C168.37 285.832 167.218 285.432 165.714 284.984C163.538 284.312 161.762 283.64 160.386 282.968C159.01 282.296 157.826 281.304 156.834 279.992C155.842 278.68 155.346 276.968 155.346 274.856C155.346 271.72 156.482 269.272 158.754 267.512C161.026 265.72 163.986 264.824 167.634 264.824C171.346 264.824 174.338 265.72 176.61 267.512C178.882 269.272 180.098 271.736 180.258 274.904H171.378C171.314 273.816 170.914 272.968 170.178 272.36C169.442 271.72 168.498 271.4 167.346 271.4C166.354 271.4 165.554 271.672 164.946 272.216C164.338 272.728 164.034 273.48 164.034 274.472C164.034 275.56 164.546 276.408 165.57 277.016C166.594 277.624 168.194 278.28 170.37 278.984C172.546 279.72 174.306 280.424 175.65 281.096C177.026 281.768 178.21 282.744 179.202 284.024C180.194 285.304 180.69 286.952 180.69 288.968C180.69 290.888 180.194 292.632 179.202 294.2C178.242 295.768 176.834 297.016 174.978 297.944C173.122 298.872 170.93 299.336 168.402 299.336Z" fill="#DCDCDC"/>
<path d="M277.2 157.88V164.696H288.192V171.032H277.2V178.424H289.632V185H268.992V151.304H289.632V157.88H277.2Z" fill="#DCDCDC"/>
<path d="M86.1018 151.304L77.3178 185H67.3818L62.0058 162.824L56.4378 185H46.5018L37.9578 151.304H46.7418L51.5898 175.832L57.5898 151.304H66.6138L72.3738 175.832L77.2698 151.304H86.1018Z" fill="#DCDCDC"/>
<path d="M404.43 104.701C404.43 96.0099 406.371 88.247 410.252 81.4123C414.218 74.4932 419.576 69.1351 426.326 65.3381C433.161 61.4567 440.797 59.5159 449.235 59.5159C459.108 59.5159 467.756 62.0473 475.182 67.1101C482.607 72.1728 487.796 79.1763 490.75 88.1205H470.372C468.347 83.9015 465.478 80.7373 461.766 78.6278C458.137 76.5183 453.918 75.4636 449.109 75.4636C443.962 75.4636 439.363 76.6871 435.313 79.1341C431.347 81.4967 428.225 84.8719 425.947 89.2596C423.753 93.6473 422.656 98.7944 422.656 104.701C422.656 110.523 423.753 115.67 425.947 120.142C428.225 124.53 431.347 127.947 435.313 130.394C439.363 132.757 443.962 133.938 449.109 133.938C453.918 133.938 458.137 132.884 461.766 130.774C465.478 128.58 468.347 125.374 470.372 121.155H490.75C487.796 130.183 482.607 137.229 475.182 142.292C467.841 147.27 459.192 149.759 449.235 149.759C440.797 149.759 433.161 147.861 426.326 144.064C419.576 140.182 414.218 134.824 410.252 127.99C406.371 121.155 404.43 113.392 404.43 104.701ZM496.265 113.687C496.265 106.599 497.658 100.313 500.442 94.8286C503.311 89.344 507.15 85.125 511.96 82.1717C516.854 79.2185 522.296 77.7418 528.287 77.7418C533.519 77.7418 538.075 78.7966 541.957 80.906C545.922 83.0155 549.087 85.6735 551.449 88.8799V78.8809H569.296V149H551.449V138.748C549.171 142.039 546.007 144.781 541.957 146.975C537.991 149.084 533.392 150.139 528.161 150.139C522.254 150.139 516.854 148.62 511.96 145.583C507.15 142.545 503.311 138.284 500.442 132.799C497.658 127.23 496.265 120.86 496.265 113.687ZM551.449 113.94C551.449 109.637 550.606 105.967 548.918 102.929C547.23 99.807 544.952 97.4443 542.083 95.8411C539.214 94.1536 536.135 93.3098 532.844 93.3098C529.553 93.3098 526.515 94.1114 523.731 95.7146C520.946 97.3178 518.668 99.6804 516.896 102.802C515.208 105.84 514.365 109.468 514.365 113.687C514.365 117.906 515.208 121.619 516.896 124.825C518.668 127.947 520.946 130.352 523.731 132.04C526.6 133.727 529.637 134.571 532.844 134.571C536.135 134.571 539.214 133.77 542.083 132.166C544.952 130.479 547.23 128.116 548.918 125.079C550.606 121.956 551.449 118.244 551.449 113.94ZM599.259 89.0064C601.537 85.8 604.659 83.1421 608.625 81.0326C612.675 78.8388 617.274 77.7418 622.421 77.7418C628.412 77.7418 633.812 79.2185 638.622 82.1717C643.516 85.125 647.355 89.344 650.139 94.8286C653.008 100.229 654.443 106.515 654.443 113.687C654.443 120.86 653.008 127.23 650.139 132.799C647.355 138.284 643.516 142.545 638.622 145.583C633.812 148.62 628.412 150.139 622.421 150.139C617.274 150.139 612.717 149.084 608.751 146.975C604.87 144.865 601.706 142.207 599.259 139.001V182.414H581.539V78.8809H599.259V89.0064ZM636.343 113.687C636.343 109.468 635.457 105.84 633.685 102.802C631.998 99.6804 629.72 97.3178 626.851 95.7146C624.066 94.1114 621.028 93.3098 617.738 93.3098C614.531 93.3098 611.494 94.1536 608.625 95.8411C605.84 97.4443 603.562 99.807 601.79 102.929C600.102 106.051 599.259 109.722 599.259 113.94C599.259 118.159 600.102 121.83 601.79 124.952C603.562 128.074 605.84 130.479 608.625 132.166C611.494 133.77 614.531 134.571 617.738 134.571C621.028 134.571 624.066 133.727 626.851 132.04C629.72 130.352 631.998 127.947 633.685 124.825C635.457 121.703 636.343 117.991 636.343 113.687ZM657.7 113.687C657.7 106.599 659.092 100.313 661.877 94.8286C664.745 89.344 668.585 85.125 673.394 82.1717C678.288 79.2185 683.731 77.7418 689.722 77.7418C694.953 77.7418 699.51 78.7966 703.391 80.906C707.357 83.0155 710.521 85.6735 712.884 88.8799V78.8809H730.73V149H712.884V138.748C710.606 142.039 707.441 144.781 703.391 146.975C699.425 149.084 694.827 150.139 689.595 150.139C683.689 150.139 678.288 148.62 673.394 145.583C668.585 142.545 664.745 138.284 661.877 132.799C659.092 127.23 657.7 120.86 657.7 113.687ZM712.884 113.94C712.884 109.637 712.04 105.967 710.352 102.929C708.665 99.807 706.387 97.4443 703.518 95.8411C700.649 94.1536 697.569 93.3098 694.278 93.3098C690.987 93.3098 687.95 94.1114 685.165 95.7146C682.381 97.3178 680.102 99.6804 678.33 102.802C676.643 105.84 675.799 109.468 675.799 113.687C675.799 117.906 676.643 121.619 678.33 124.825C680.102 127.947 682.381 130.352 685.165 132.04C688.034 133.727 691.072 134.571 694.278 134.571C697.569 134.571 700.649 133.77 703.518 132.166C706.387 130.479 708.665 128.116 710.352 125.079C712.04 121.956 712.884 118.244 712.884 113.94ZM738.417 113.94C738.417 106.684 739.894 100.355 742.847 94.9552C745.8 89.4705 749.893 85.2516 755.124 82.2983C760.356 79.2606 766.346 77.7418 773.097 77.7418C781.788 77.7418 788.96 79.9357 794.614 84.3234C800.351 88.6267 804.191 94.702 806.131 102.549H787.019C786.007 99.5116 784.277 97.149 781.83 95.4614C779.467 93.6895 776.514 92.8035 772.97 92.8035C767.908 92.8035 763.899 94.6598 760.946 98.3725C757.993 102.001 756.516 107.19 756.516 113.94C756.516 120.606 757.993 125.796 760.946 129.508C763.899 133.137 767.908 134.951 772.97 134.951C780.142 134.951 784.826 131.744 787.019 125.332H806.131C804.191 132.926 800.351 138.959 794.614 143.431C788.876 147.903 781.703 150.139 773.097 150.139C766.346 150.139 760.356 148.662 755.124 145.709C749.893 142.672 745.8 138.453 742.847 133.052C739.894 127.568 738.417 121.197 738.417 113.94ZM823.036 70.5274C819.914 70.5274 817.298 69.557 815.189 67.6163C813.164 65.5912 812.151 63.102 812.151 60.1488C812.151 57.1955 813.164 54.7485 815.189 52.8078C817.298 50.7827 819.914 49.7701 823.036 49.7701C826.158 49.7701 828.732 50.7827 830.757 52.8078C832.866 54.7485 833.921 57.1955 833.921 60.1488C833.921 63.102 832.866 65.5912 830.757 67.6163C828.732 69.557 826.158 70.5274 823.036 70.5274ZM831.769 78.8809V149H814.05V78.8809H831.769ZM864.844 93.4363V127.357C864.844 129.719 865.393 131.449 866.49 132.546C867.671 133.559 869.612 134.065 872.312 134.065H880.539V149H869.401C854.466 149 846.998 141.743 846.998 127.23V93.4363H838.645V78.8809H846.998V61.541H864.844V78.8809H880.539V93.4363H864.844ZM919.357 150.139C912.607 150.139 906.531 148.662 901.131 145.709C895.731 142.672 891.47 138.41 888.348 132.926C885.31 127.441 883.791 121.113 883.791 113.94C883.791 106.768 885.352 100.44 888.474 94.9552C891.68 89.4705 896.026 85.2516 901.511 82.2983C906.995 79.2606 913.113 77.7418 919.863 77.7418C926.613 77.7418 932.731 79.2606 938.216 82.2983C943.7 85.2516 948.004 89.4705 951.126 94.9552C954.332 100.44 955.935 106.768 955.935 113.94C955.935 121.113 954.29 127.441 950.999 132.926C947.793 138.41 943.405 142.672 937.836 145.709C932.351 148.662 926.192 150.139 919.357 150.139ZM919.357 134.698C922.563 134.698 925.559 133.938 928.343 132.419C931.212 130.816 933.49 128.454 935.178 125.332C936.866 122.21 937.709 118.413 937.709 113.94C937.709 107.275 935.937 102.17 932.393 98.6257C928.934 94.9974 924.673 93.1832 919.61 93.1832C914.547 93.1832 910.286 94.9974 906.827 98.6257C903.451 102.17 901.764 107.275 901.764 113.94C901.764 120.606 903.409 125.754 906.7 129.382C910.075 132.926 914.294 134.698 919.357 134.698ZM981.59 89.7658C983.868 86.0532 986.822 83.1421 990.45 81.0326C994.163 78.9231 998.382 77.8684 1003.11 77.8684V96.474H998.424C992.855 96.474 988.636 97.7819 985.767 100.398C982.982 103.013 981.59 107.57 981.59 114.067V149H963.87V78.8809H981.59V89.7658ZM404.43 231.701C404.43 223.01 406.371 215.247 410.252 208.412C414.218 201.493 419.576 196.135 426.326 192.338C433.161 188.457 440.797 186.516 449.235 186.516C459.108 186.516 467.756 189.047 475.182 194.11C482.607 199.173 487.796 206.176 490.75 215.12H470.372C468.347 210.901 465.478 207.737 461.766 205.628C458.137 203.518 453.918 202.464 449.109 202.464C443.962 202.464 439.363 203.687 435.313 206.134C431.347 208.497 428.225 211.872 425.947 216.26C423.753 220.647 422.656 225.794 422.656 231.701C422.656 237.523 423.753 242.67 425.947 247.142C428.225 251.53 431.347 254.947 435.313 257.394C439.363 259.757 443.962 260.938 449.109 260.938C453.918 260.938 458.137 259.884 461.766 257.774C465.478 255.58 468.347 252.374 470.372 248.155H490.75C487.796 257.183 482.607 264.229 475.182 269.292C467.841 274.27 459.192 276.759 449.235 276.759C440.797 276.759 433.161 274.861 426.326 271.064C419.576 267.182 414.218 261.824 410.252 254.99C406.371 248.155 404.43 240.392 404.43 231.701ZM531.958 277.139C525.207 277.139 519.132 275.662 513.732 272.709C508.332 269.672 504.07 265.41 500.948 259.926C497.911 254.441 496.392 248.113 496.392 240.94C496.392 233.768 497.953 227.44 501.075 221.955C504.281 216.471 508.627 212.252 514.112 209.298C519.596 206.261 525.714 204.742 532.464 204.742C539.214 204.742 545.332 206.261 550.816 209.298C556.301 212.252 560.604 216.471 563.726 221.955C566.933 227.44 568.536 233.768 568.536 240.94C568.536 248.113 566.891 254.441 563.6 259.926C560.394 265.41 556.006 269.672 550.437 272.709C544.952 275.662 538.792 277.139 531.958 277.139ZM531.958 261.698C535.164 261.698 538.16 260.938 540.944 259.419C543.813 257.816 546.091 255.454 547.779 252.332C549.466 249.21 550.31 245.413 550.31 240.94C550.31 234.275 548.538 229.17 544.994 225.626C541.535 221.997 537.274 220.183 532.211 220.183C527.148 220.183 522.887 221.997 519.427 225.626C516.052 229.17 514.365 234.275 514.365 240.94C514.365 247.606 516.01 252.754 519.301 256.382C522.676 259.926 526.895 261.698 531.958 261.698ZM663.551 204.868C672.157 204.868 679.076 207.526 684.308 212.842C689.624 218.074 692.282 225.415 692.282 234.865V276H674.562V237.27C674.562 231.785 673.17 227.609 670.385 224.74C667.601 221.786 663.804 220.31 658.994 220.31C654.185 220.31 650.345 221.786 647.476 224.74C644.692 227.609 643.3 231.785 643.3 237.27V276H625.58V237.27C625.58 231.785 624.188 227.609 621.403 224.74C618.619 221.786 614.822 220.31 610.012 220.31C605.118 220.31 601.237 221.786 598.368 224.74C595.583 227.609 594.191 231.785 594.191 237.27V276H576.471V205.881H594.191V214.361C596.469 211.408 599.38 209.087 602.924 207.4C606.553 205.712 610.518 204.868 614.822 204.868C620.306 204.868 625.2 206.05 629.504 208.412C633.807 210.691 637.14 213.981 639.503 218.285C641.781 214.234 645.072 210.986 649.375 208.539C653.763 206.092 658.488 204.868 663.551 204.868ZM721.753 216.006C724.032 212.8 727.154 210.142 731.12 208.033C735.17 205.839 739.768 204.742 744.915 204.742C750.906 204.742 756.307 206.218 761.116 209.172C766.01 212.125 769.85 216.344 772.634 221.829C775.503 227.229 776.937 233.515 776.937 240.687C776.937 247.86 775.503 254.23 772.634 259.799C769.85 265.284 766.01 269.545 761.116 272.583C756.307 275.62 750.906 277.139 744.915 277.139C739.768 277.139 735.212 276.084 731.246 273.975C727.365 271.865 724.2 269.207 721.753 266.001V309.414H704.034V205.881H721.753V216.006ZM758.838 240.687C758.838 236.468 757.952 232.84 756.18 229.802C754.493 226.68 752.214 224.318 749.345 222.715C746.561 221.111 743.523 220.31 740.232 220.31C737.026 220.31 733.988 221.154 731.12 222.841C728.335 224.444 726.057 226.807 724.285 229.929C722.597 233.051 721.753 236.722 721.753 240.94C721.753 245.159 722.597 248.83 724.285 251.952C726.057 255.074 728.335 257.479 731.12 259.166C733.988 260.77 737.026 261.571 740.232 261.571C743.523 261.571 746.561 260.727 749.345 259.04C752.214 257.352 754.493 254.947 756.18 251.825C757.952 248.703 758.838 244.991 758.838 240.687ZM780.195 240.687C780.195 233.599 781.587 227.313 784.371 221.829C787.24 216.344 791.079 212.125 795.889 209.172C800.783 206.218 806.226 204.742 812.216 204.742C817.448 204.742 822.004 205.797 825.886 207.906C829.852 210.016 833.016 212.673 835.379 215.88V205.881H853.225V276H835.379V265.748C833.1 269.039 829.936 271.781 825.886 273.975C821.92 276.084 817.321 277.139 812.09 277.139C806.183 277.139 800.783 275.62 795.889 272.583C791.079 269.545 787.24 265.284 784.371 259.799C781.587 254.23 780.195 247.86 780.195 240.687ZM835.379 240.94C835.379 236.637 834.535 232.967 832.847 229.929C831.16 226.807 828.881 224.444 826.012 222.841C823.144 221.154 820.064 220.31 816.773 220.31C813.482 220.31 810.444 221.111 807.66 222.715C804.875 224.318 802.597 226.68 800.825 229.802C799.138 232.84 798.294 236.468 798.294 240.687C798.294 244.906 799.138 248.619 800.825 251.825C802.597 254.947 804.875 257.352 807.66 259.04C810.529 260.727 813.567 261.571 816.773 261.571C820.064 261.571 823.144 260.77 826.012 259.166C828.881 257.479 831.16 255.116 832.847 252.079C834.535 248.956 835.379 245.244 835.379 240.94ZM892.301 277.139C886.563 277.139 881.416 276.127 876.859 274.101C872.303 271.992 868.675 269.165 865.975 265.621C863.359 262.077 861.924 258.154 861.671 253.85H879.517C879.855 256.551 881.163 258.787 883.441 260.559C885.804 262.331 888.715 263.217 892.174 263.217C895.549 263.217 898.165 262.542 900.021 261.191C901.962 259.841 902.933 258.112 902.933 256.002C902.933 253.724 901.751 252.036 899.389 250.939C897.11 249.758 893.44 248.492 888.377 247.142C883.146 245.877 878.842 244.569 875.467 243.219C872.176 241.869 869.307 239.801 866.86 237.017C864.498 234.232 863.317 230.477 863.317 225.752C863.317 221.871 864.413 218.327 866.607 215.12C868.886 211.914 872.092 209.383 876.227 207.526C880.446 205.67 885.382 204.742 891.035 204.742C899.389 204.742 906.055 206.851 911.033 211.07C916.011 215.205 918.754 220.816 919.26 227.904H902.3C902.047 225.119 900.865 222.926 898.756 221.322C896.731 219.635 893.988 218.791 890.529 218.791C887.322 218.791 884.833 219.382 883.061 220.563C881.374 221.744 880.53 223.39 880.53 225.499C880.53 227.862 881.711 229.676 884.074 230.942C886.436 232.123 890.107 233.346 895.085 234.612C900.148 235.878 904.325 237.186 907.616 238.536C910.906 239.886 913.733 241.995 916.096 244.864C918.543 247.649 919.808 251.361 919.893 256.002C919.893 260.052 918.754 263.681 916.475 266.887C914.282 270.093 911.075 272.625 906.856 274.481C902.722 276.253 897.87 277.139 892.301 277.139ZM956.208 277.139C950.47 277.139 945.323 276.127 940.767 274.101C936.21 271.992 932.582 269.165 929.882 265.621C927.266 262.077 925.832 258.154 925.578 253.85H943.425C943.762 256.551 945.07 258.787 947.348 260.559C949.711 262.331 952.622 263.217 956.082 263.217C959.457 263.217 962.072 262.542 963.929 261.191C965.869 259.841 966.84 258.112 966.84 256.002C966.84 253.724 965.659 252.036 963.296 250.939C961.018 249.758 957.347 248.492 952.284 247.142C947.053 245.877 942.75 244.569 939.374 243.219C936.084 241.869 933.215 239.801 930.768 237.017C928.405 234.232 927.224 230.477 927.224 225.752C927.224 221.871 928.321 218.327 930.515 215.12C932.793 211.914 935.999 209.383 940.134 207.526C944.353 205.67 949.289 204.742 954.942 204.742C963.296 204.742 969.962 206.851 974.94 211.07C979.919 215.205 982.661 220.816 983.167 227.904H966.207C965.954 225.119 964.773 222.926 962.663 221.322C960.638 219.635 957.896 218.791 954.436 218.791C951.23 218.791 948.741 219.382 946.969 220.563C945.281 221.744 944.437 223.39 944.437 225.499C944.437 227.862 945.618 229.676 947.981 230.942C950.344 232.123 954.014 233.346 958.993 234.612C964.055 235.878 968.232 237.186 971.523 238.536C974.814 239.886 977.64 241.995 980.003 244.864C982.45 247.649 983.716 251.361 983.8 256.002C983.8 260.052 982.661 263.681 980.383 266.887C978.189 270.093 974.982 272.625 970.763 274.481C966.629 276.253 961.777 277.139 956.208 277.139Z" fill="black"/>
</svg>
